# xmcd
# Copyright (c) 1998 CDDB Inc.
#
# Track frame offsets:
#	150
#	23961
#	42699
#	61731
#	89807
#	100613
#	111420
#	126118
#	144962
#	157709
#	174096
#	186479
#	217090
#	232151
#	247943
#	263386
#	283727
#
# Disc length: 3933 seconds
#
# Revision: 1
# Processed by: cddbd v1.5.2PL0 Copyright (c) Steve Scherf et al.
# Submitted via: AudioCatalyst 2.10full
#
DISCID=ef0f5b11
DTITLE=ZZ Top - One Foot in the Blues
DYEAR=1900
DGENRE=
TTITLE0=Brown sugar
TTITLE1=Just got back from baby's
TTITLE2=A fool for your tstockings
TTITLE3=I need you tonight
TTITLE4=She loves my automibile
TTITLE5=Hi fi mama
TTITLE6=Hot blue and righteous
TTITLE7=My head's in mississipi
TTITLE8=Lowdown in the street
TTITLE9=If I could only flag her down
TTITLE10=Apologies to pearly
TTITLE11=Sure got cold after the rain fell
TTITLE12=Bar BQ
TTITLE13=Old man
TTITLE14=Certified blues
TTITLE15=2000 blues
TTITLE16=Heaven hell or houston
EXTD=
EXTT0=
EXTT1=
EXTT2=
EXTT3=
EXTT4=
EXTT5=
EXTT6=
EXTT7=
EXTT8=
EXTT9=
EXTT10=
EXTT11=
EXTT12=
EXTT13=
EXTT14=
EXTT15=
EXTT16=
PLAYORDER=
